<svg id="Layer_1" data-name="Layer 1" xmlns="http://www.w3.org/2000/svg" viewBox="0 0 66.98 52.7">
  <title>China Minsheng Bank logo - Icon Only</title>
  <path d="M264,395.31c18.47,0,33.49-7.42,33.49-16.54,0-7.63-11-13.71-25.86-15.58l8.67-4L264,351.89l-16.29,7.32,16.17,7.28.12,0c12.22,0,22.15,5.5,22.15,12.25S276.27,391,264,391s-22.16-5.5-22.16-12.26v-.28H230.56v.28c0,9.12,15,16.54,33.49,16.54m0-33.12-6.63-3,6.63-3,6.63,3Z" transform="translate(-230.56 -342.61)" style="fill:#0071bb"/>
  <path d="M264,342.61c-18.46,0-33.49,7.42-33.49,16.54,0,7.63,11,13.72,25.87,15.59l-8.67,4L264,386l16.29-7.31-16.17-7.29-.12,0c-12.22,0-22.16-5.5-22.16-12.25s9.94-12.26,22.16-12.26,22.16,5.5,22.16,12.26v.28h11.33v-.28c0-9.12-15-16.54-33.49-16.54m0,33.12,6.63,3-6.63,3-6.63-3Z" transform="translate(-230.56 -342.61)" style="fill:#00a55d"/>
</svg>
