<?xml version="1.0" standalone="no"?>
<!DOCTYPE svg PUBLIC "-//W3C//DTD SVG 20010904//EN"
 "http://www.w3.org/TR/2001/REC-SVG-20010904/DTD/svg10.dtd">
<svg version="1.0" xmlns="http://www.w3.org/2000/svg"
 width="749.000000pt" height="299.000000pt" viewBox="0 0 749.000000 299.000000"
 preserveAspectRatio="xMidYMid meet">
<metadata>
Created by potrace 1.16, written by Peter Selinger 2001-2019
</metadata>
<g transform="translate(0.000000,299.000000) scale(0.100000,-0.100000)"
fill="#E2231A" stroke="none">
<path d="M2439 2443 l-1 -448 -19 60 c-10 33 -23 69 -28 80 -5 11 -22 48 -37
83 -16 34 -32 62 -37 62 -4 0 -6 4 -3 9 6 10 -45 89 -86 135 -15 17 -28 34
-28 39 0 9 -136 147 -145 147 -4 0 -28 19 -56 43 -27 23 -51 40 -54 37 -2 -3
-11 4 -19 15 -9 11 -16 16 -16 12 0 -5 -12 0 -27 11 -46 32 -156 85 -193 93
-19 4 -71 17 -115 30 -79 23 -85 23 -778 26 l-697 4 2 -1388 3 -1388 413 -3
412 -2 0 237 0 238 227 -3 c263 -4 346 5 491 54 57 19 109 34 116 34 7 0 51
23 97 51 46 28 91 54 99 57 37 13 195 165 256 247 25 33 52 68 60 78 28 34 53
80 48 89 -3 4 -1 8 5 8 5 0 13 10 17 23 4 12 17 45 30 72 12 28 32 79 43 115
l20 65 0 -683 1 -682 468 2 467 3 5 575 c3 325 8 556 13 531 18 -102 87 -295
128 -362 16 -25 29 -51 29 -57 0 -13 63 -104 105 -151 17 -18 30 -36 30 -40 0
-9 143 -146 207 -199 29 -24 82 -62 118 -84 36 -23 77 -49 92 -60 15 -10 33
-18 40 -18 7 0 38 -12 68 -26 89 -42 158 -64 275 -86 98 -19 156 -21 543 -25
l432 -5 0 359 c1 265 3 353 12 338 22 -42 84 -131 100 -146 10 -9 15 -18 12
-21 -3 -3 6 -15 20 -26 15 -11 26 -22 26 -25 0 -8 127 -131 182 -175 66 -54
220 -151 231 -145 4 2 7 -1 7 -6 0 -6 7 -11 15 -11 9 0 41 -13 73 -28 80 -40
170 -67 292 -88 87 -15 179 -19 533 -22 l427 -3 0 401 c0 337 -2 404 -14 416
-13 12 -73 14 -369 14 -340 -1 -356 0 -412 21 -96 36 -264 156 -250 178 2 5
-1 11 -9 14 -22 9 -99 145 -102 180 -1 18 -7 50 -13 72 -15 57 -13 141 4 208
8 32 15 65 15 73 0 43 119 222 163 245 12 7 38 25 57 40 47 37 112 70 152 76
18 3 34 8 36 13 2 4 166 9 364 10 199 0 365 3 370 6 4 3 8 187 8 410 l0 405
-462 -4 -463 -4 -100 -27 c-55 -15 -112 -29 -127 -31 -43 -6 -272 -120 -330
-164 -30 -22 -58 -41 -63 -41 -4 0 -29 -19 -56 -42 -26 -24 -60 -54 -76 -68
-56 -50 -193 -220 -193 -240 0 -6 -4 -10 -9 -10 -5 0 -18 -19 -30 -42 l-21
-43 0 358 0 358 -457 -3 -458 -4 -100 -27 c-55 -15 -107 -27 -117 -27 -10 0
-66 -22 -124 -50 -58 -27 -110 -50 -114 -50 -4 0 -41 -25 -83 -55 -41 -30 -78
-55 -82 -55 -4 0 -27 -17 -50 -37 -23 -21 -55 -49 -71 -63 -39 -34 -112 -115
-149 -165 -16 -22 -33 -41 -37 -43 -4 -2 -8 -10 -8 -18 0 -8 -3 -14 -7 -14
-10 0 -34 -41 -94 -161 -44 -87 -79 -185 -114 -324 -11 -42 -13 34 -14 505 -1
305 -4 565 -7 578 l-6 22 -464 0 -464 0 -1 -447z m-1019 -347 c30 -16 58 -34
62 -40 4 -6 8 -8 8 -4 0 10 90 -74 90 -84 0 -5 10 -24 23 -41 33 -44 56 -110
50 -141 -3 -14 -1 -26 3 -26 5 0 9 -14 10 -30 1 -17 -3 -30 -7 -30 -5 0 -9
-19 -9 -42 0 -61 -44 -142 -115 -214 -99 -100 -114 -104 -403 -113 l-212 -6 0
403 0 403 223 -3 222 -3 55 -29z m3959 -93 c-16 -32 -27 -64 -24 -71 2 -7 0
-25 -6 -40 -31 -77 -52 -205 -56 -349 -6 -162 4 -260 39 -391 11 -42 22 -90
24 -106 2 -16 13 -47 24 -69 12 -21 19 -41 17 -43 -2 -2 -154 -4 -338 -4 -363
-1 -359 -1 -468 60 -24 14 -53 30 -66 37 -24 14 -106 100 -146 153 -31 43 -78
175 -89 251 -18 126 37 325 108 391 12 12 22 27 22 33 0 6 18 29 40 50 22 21
40 35 40 31 0 -5 11 2 24 15 13 13 48 36 78 51 102 51 147 56 489 57 l316 1
-28 -57z"/>
</g>
</svg>
