<?xml version="1.0" encoding="utf-8"?>
<svg version="1.1" id="Layer_1" xmlns="http://www.w3.org/2000/svg" xmlns:xlink="http://www.w3.org/1999/xlink" x="0px" y="0px"
	 viewBox="0 0 183.9 155.7" style="enable-background:new 0 0 183.9 155.7;" xml:space="preserve">
<style type="text/css">
	.st0{fill:#00376D;}
</style>
<path class="st0" d="M120.4,59.3l0.6-0.5c11.9-9.7,26.2-8.8,30.9-8.2c-1.9-5.6-10.5-24.2-36-24.2c-14.4,0-23.9,7.7-29.2,14.1
	c-6.3,7.6-7.9,16.6-8.2,21.3c-2.1,22.1-13.9,32.7-15.2,33.9c-13.2,10.9-26.7,9.5-31.5,8.5c2.3,5.9,11.6,24.9,36.9,24.2
	c10-0.3,18.9-4.2,26.3-11.7c8.3-8.3,10.1-21.3,10.5-25.1C107.4,72.7,116.5,62.7,120.4,59.3 M183.8,23.3c0-4.3-3.3-6.9-3.3-6.9
	L160.8,1.1c0,0-4-3.3-4,1.8v61c0,0.1,0,0.7,0,1.6c0,4.6-1.1,18.4-13,28.6c-14.4,12.3-29.7,11.1-35.1,10.3
	c2.9,5.8,13.6,24.3,37.9,24.3c22.4,0,37.4-19.7,37.4-38.1C183.9,90.4,183.9,55.1,183.8,23.3 M40.1,60.6
	c14.3-12.3,29.7-11.1,35.1-10.2c-2.8-5.8-13.5-24.2-37.8-24.2C15,26.1,0,45.8,0,64.2c0,0,0,36.4,0,68.2c0,4.3,3.3,6.9,3.3,6.9
	l19.8,15.3c0,0,4,3.3,4-1.8v-62c0-0.1,0-0.7,0-1.6C27.1,84.6,28.1,70.9,40.1,60.6"/>
</svg>
