<svg width="32" height="32" viewBox="0 0 32 32" fill="none" xmlns="http://www.w3.org/2000/svg">
  <path d="M10 8C5.58172 8 2 11.5817 2 16C2 20.4183 5.58172 24 10 24C12.4 24 14.6 22.9 16 21.1C17.4 22.9 19.6 24 22 24C26.4183 24 30 20.4183 30 16C30 11.5817 26.4183 8 22 8C19.6 8 17.4 9.1 16 10.9C14.6 9.1 12.4 8 10 8ZM10 12C11.3 12 12.4 12.6 13.2 13.5L16 17.1L18.8 13.5C19.6 12.6 20.7 12 22 12C24.2091 12 26 13.7909 26 16C26 18.2091 24.2091 20 22 20C20.7 20 19.6 19.4 18.8 18.5L16 14.9L13.2 18.5C12.4 19.4 11.3 20 10 20C7.79086 20 6 18.2091 6 16C6 13.7909 7.79086 12 10 12Z" fill="#E63946"/>
</svg>
